<?xml version="1.0" encoding="utf-8" standalone="no"?>
<!DOCTYPE svg PUBLIC "-//W3C//DTD SVG 1.1//EN"
  "http://www.w3.org/Graphics/SVG/1.1/DTD/svg11.dtd">
<!-- Created with matplotlib (http://matplotlib.org/) -->
<svg height="288pt" version="1.1" viewBox="0 0 432 288" width="432pt" xmlns="http://www.w3.org/2000/svg" xmlns:xlink="http://www.w3.org/1999/xlink">
 <defs>
  <style type="text/css">
*{stroke-linecap:butt;stroke-linejoin:round;stroke-miterlimit:100000;}
  </style>
 </defs>
 <g id="figure_1">
  <g id="patch_1">
   <path d="M 0 288 
L 432 288 
L 432 0 
L 0 0 
z
" style="fill:#ffffff;"/>
  </g>
  <g id="axes_1">
   <g id="patch_2">
    <path d="M 54 252 
L 388.8 252 
L 388.8 28.8 
L 54 28.8 
z
" style="fill:#ffffff;"/>
   </g>
   <g id="LineCollection_1"/>
   <g id="LineCollection_2"/>
   <g id="LineCollection_3"/>
   <g id="LineCollection_4"/>
   <g id="LineCollection_5"/>
   <g id="LineCollection_6"/>
   <g id="LineCollection_7"/>
   <g id="LineCollection_8">
    <path clip-path="url(#pab9e0de774)" d="M 388.8 30.113101 
L 386.830348 28.8 
" style="fill:none;stroke:#000080;"/>
   </g>
   <g id="LineCollection_9">
    <path clip-path="url(#pab9e0de774)" d="M 388.8 70.311864 
L 387.739478 69.795918 
L 381.967347 66.829677 
L 378.923279 65.240816 
L 375.134694 63.162535 
L 371.213696 60.967362 
" style="fill:none;stroke:#000080;"/>
    <path clip-path="url(#pab9e0de774)" d="M 338.89252 39.209219 
L 337.256198 37.910204 
L 334.138776 35.384481 
L 331.755484 33.355102 
L 327.306122 29.507015 
L 326.532204 28.8 
" style="fill:none;stroke:#000080;"/>
   </g>
   <g id="LineCollection_10">
    <path clip-path="url(#pab9e0de774)" d="M 388.8 104.70691 
L 381.967347 102.221853 
L 380.514391 101.681633 
L 375.134694 99.519182 
L 369.190214 97.126531 
L 368.302041 96.742318 
L 361.469388 93.710751 
L 358.940502 92.571429 
L 354.636735 90.503736 
L 349.534789 88.016327 
L 347.804082 87.121666 
L 342.458203 84.299985 
" style="fill:none;stroke:#000080;"/>
    <path clip-path="url(#pab9e0de774)" d="M 309.800581 63.062446 
L 306.808163 60.751529 
L 306.727155 60.685714 
L 301.317501 56.130612 
L 299.97551 54.976808 
L 296.244397 51.57551 
L 293.142857 48.706332 
L 291.433873 47.020408 
L 286.886523 42.465306 
L 286.310204 41.87319 
L 282.721227 37.910204 
L 279.477551 34.323739 
L 278.667221 33.355102 
L 274.939636 28.8 
" style="fill:none;stroke:#000080;"/>
   </g>
   <g id="LineCollection_11">
    <path clip-path="url(#pab9e0de774)" d="M 388.8 134.141599 
L 386.479367 133.567347 
L 381.967347 132.317532 
L 375.134694 130.412824 
L 370.132923 129.012245 
L 368.302041 128.443589 
L 361.469388 126.276179 
L 355.73346 124.457143 
L 354.636735 124.07484 
L 347.804082 121.629662 
L 342.999999 119.902041 
L 340.971429 119.107361 
L 338.379307 118.069621 
" style="fill:none;stroke:#000080;"/>
    <path clip-path="url(#pab9e0de774)" d="M 303.208382 101.302321 
L 299.97551 99.400464 
L 296.244533 97.126531 
L 293.142857 95.143139 
L 289.285291 92.571429 
L 286.310204 90.503644 
L 282.899304 88.016327 
L 279.477551 85.43123 
L 277.008172 83.461224 
L 272.644898 79.877365 
L 271.532392 78.906122 
L 266.465027 74.35102 
L 265.812245 73.745806 
L 261.839512 69.795918 
L 258.979592 66.913688 
L 257.442075 65.240816 
L 253.338959 60.685714 
L 252.146939 59.333334 
L 249.555507 56.130612 
L 245.88774 51.57551 
L 245.314286 50.84436 
L 242.585731 47.020408 
L 239.334616 42.465306 
L 238.481633 41.244718 
L 236.380763 37.910204 
L 233.523703 33.355102 
L 231.64898 30.347089 
L 230.787601 28.8 
" style="fill:none;stroke:#000080;"/>
   </g>
   <g id="LineCollection_12">
    <path clip-path="url(#pab9e0de774)" d="M 388.8 159.091022 
L 381.967347 157.843716 
L 375.134694 156.593483 
L 373.8005 156.342857 
L 368.302041 155.153963 
L 361.469388 153.66642 
L 354.636735 152.176542 
L 352.899668 151.787755 
L 347.804082 150.491987 
L 340.971429 148.739083 
L 335.134993 147.232653 
L 334.138776 146.943664 
L 327.306122 144.901349 
L 320.473469 142.859086 
L 319.887514 142.677551 
L 313.640816 140.530402 
L 306.808163 138.175891 
L 306.659247 138.122449 
L 299.97551 135.489433 
L 295.154779 133.567347 
L 293.142857 132.693882 
L 286.310204 129.640952 
L 284.952437 129.012245 
L 279.477551 126.280497 
L 275.931257 124.457143 
L 272.644898 122.650473 
L 267.828025 119.902041 
L 265.812245 118.681579 
L 260.544152 115.346939 
L 258.979592 114.303899 
L 253.977632 110.791837 
L 252.146939 109.447983 
L 248.02429 106.236735 
L 245.314286 104.045829 
L 242.579255 101.681633 
L 238.481633 98.031708 
L 237.538572 97.126531 
L 232.959177 92.571429 
L 231.64898 91.230147 
L 228.76585 88.016327 
L 224.816327 83.560502 
L 224.736163 83.461224 
L 221.204397 78.906122 
L 217.983673 74.741658 
L 217.711372 74.35102 
L 216.577999 72.665757 
" style="fill:none;stroke:#000080;"/>
    <path clip-path="url(#pab9e0de774)" d="M 197.459574 38.73782 
L 197.109775 37.910204 
L 195.234426 33.355102 
L 193.363467 28.8 
" style="fill:none;stroke:#000080;"/>
   </g>
   <g id="LineCollection_13">
    <path clip-path="url(#pab9e0de774)" d="M 388.8 180.214516 
L 381.967347 179.429226 
L 379.323009 179.118367 
L 375.134694 178.524818 
L 368.302041 177.540778 
L 361.469388 176.548914 
L 354.636735 175.548462 
L 347.975032 174.563265 
L 347.804082 174.533333 
L 340.971429 173.297711 
L 334.138776 172.052364 
L 327.306122 170.796117 
L 323.106646 170.008163 
L 321.895948 169.743988 
" style="fill:none;stroke:#000084;"/>
    <path clip-path="url(#pab9e0de774)" d="M 284.083091 160.250528 
L 279.477551 158.76507 
L 272.644898 156.540927 
L 272.063081 156.342857 
L 265.812245 153.974974 
L 260.142188 151.787755 
L 258.979592 151.293656 
L 252.146939 148.265646 
L 249.903207 147.232653 
L 245.314286 144.933875 
L 240.985098 142.677551 
L 238.481633 141.271097 
L 233.141028 138.122449 
L 231.64898 137.182852 
L 226.225721 133.567347 
L 224.816327 132.572648 
L 220.093355 129.012245 
L 217.983673 127.343268 
L 214.599188 124.457143 
L 211.15102 121.397862 
L 209.601532 119.902041 
L 205.059517 115.346939 
L 204.318367 114.571874 
L 201.037539 110.791837 
L 197.485714 106.624613 
L 197.188609 106.236735 
L 193.852395 101.681633 
L 190.653061 97.273068 
L 190.558717 97.126531 
L 187.752261 92.571429 
L 184.969897 88.016327 
L 183.820408 86.083993 
L 182.457624 83.461224 
L 180.143927 78.906122 
L 177.849598 74.35102 
L 176.987755 72.595569 
L 175.805824 69.795918 
L 173.921454 65.240816 
L 172.053434 60.685714 
L 170.200001 56.130612 
L 170.155102 56.016645 
L 168.677306 51.57551 
L 167.17663 47.020408 
L 165.688832 42.465306 
L 164.212773 37.910204 
L 163.322449 35.117994 
L 162.856161 33.355102 
L 161.678226 28.8 
" style="fill:none;stroke:#000084;"/>
   </g>
   <g id="LineCollection_14">
    <path clip-path="url(#pab9e0de774)" d="M 388.8 197.907848 
L 381.967347 197.419374 
L 380.871062 197.338776 
L 375.134694 196.802287 
L 368.302041 196.153287 
L 361.469388 195.495508 
L 354.636735 194.828375 
L 347.804082 194.151265 
L 340.971429 193.463495 
L 334.331371 192.783673 
L 334.138776 192.759267 
L 327.306122 191.863774 
L 320.473469 190.954909 
L 313.640816 190.031592 
L 306.808163 189.092631 
L 300.645547 188.228571 
L 299.97551 188.115159 
L 293.142857 186.914736 
L 286.310204 185.694175 
L 279.477551 184.451491 
L 275.324813 183.673469 
L 272.644898 183.080796 
L 265.812245 181.51692 
L 258.979592 179.923541 
L 255.648776 179.118367 
L 252.146939 178.13849 
L 245.314286 176.15992 
L 239.951065 174.563265 
L 238.481633 174.065087 
L 231.64898 171.637097 
L 227.219473 170.008163 
L 224.816327 169.01758 
L 217.983673 166.069257 
L 216.634099 165.453061 
L 211.15102 162.690269 
L 207.779436 160.897959 
L 204.318367 158.891354 
L 200.196424 156.342857 
L 197.485714 154.535717 
L 193.662968 151.787755 
L 190.653061 149.480376 
L 187.964596 147.232653 
L 183.820408 143.577267 
L 182.896114 142.677551 
L 179.946534 139.639521 
" style="fill:none;stroke:#00008d;"/>
    <path clip-path="url(#pab9e0de774)" d="M 158.061365 107.562127 
L 157.378807 106.236735 
L 156.489796 104.450125 
L 155.322764 101.681633 
L 153.458737 97.126531 
L 151.627897 92.571429 
L 149.827261 88.016327 
L 149.657143 87.569635 
L 148.361053 83.461224 
L 146.952612 78.906122 
L 145.567637 74.35102 
L 144.204339 69.795918 
L 142.861099 65.240816 
L 142.82449 65.112419 
L 141.804757 60.685714 
L 140.773102 56.130612 
L 139.757437 51.57551 
L 138.756739 47.020408 
L 137.770069 42.465306 
L 136.796569 37.910204 
L 135.991837 34.085959 
L 135.870939 33.355102 
L 135.138227 28.8 
" style="fill:none;stroke:#00008d;"/>
   </g>
   <g id="LineCollection_15">
    <path clip-path="url(#pab9e0de774)" d="M 388.8 212.390667 
L 381.967347 212.077825 
L 375.134694 211.759028 
L 368.302041 211.433957 
L 361.469388 211.102265 
L 359.504268 211.004082 
L 354.636735 210.67603 
L 347.804082 210.205284 
L 340.971429 209.725472 
L 334.138776 209.236033 
L 327.306122 208.736357 
L 320.473469 208.225774 
L 313.640816 207.703549 
L 312.568745 207.619656 
" style="fill:none;stroke:#00009b;"/>
    <path clip-path="url(#pab9e0de774)" d="M 273.766578 203.744261 
L 272.644898 203.613902 
L 265.812245 202.797829 
L 258.979592 201.957788 
L 258.484593 201.893878 
L 252.146939 200.874727 
L 245.314286 199.742726 
L 238.481633 198.575984 
L 231.64898 197.370773 
L 231.477889 197.338776 
L 224.816327 195.833028 
L 217.983673 194.236089 
L 212.007969 192.783673 
L 211.15102 192.53758 
L 204.318367 190.452548 
L 197.485714 188.28808 
L 197.311268 188.228571 
L 190.653061 185.611276 
L 185.97855 183.673469 
L 183.820408 182.659717 
L 176.987755 179.22524 
L 176.792931 179.118367 
L 170.155102 175.073801 
L 169.389298 174.563265 
L 163.322449 170.138046 
L 163.16214 170.008163 
L 158.010425 165.453061 
L 156.489796 164.0143 
L 153.583086 160.897959 
L 149.657143 156.459155 
L 149.567879 156.342857 
L 146.321178 151.787755 
L 143.19363 147.232653 
L 142.82449 146.661354 
L 140.645867 142.677551 
L 138.250457 138.122449 
L 135.991837 133.681407 
L 135.943841 133.567347 
L 134.136024 129.012245 
L 132.385912 124.457143 
L 130.687909 119.902041 
L 129.159184 115.676938 
L 129.063319 115.346939 
L 127.803257 110.791837 
L 126.579147 106.236735 
L 125.388031 101.681633 
L 124.227288 97.126531 
L 123.094583 92.571429 
L 122.326531 89.393815 
L 122.068727 88.016327 
L 121.246692 83.461224 
L 120.444676 78.906122 
L 119.661338 74.35102 
L 118.895464 69.795918 
L 118.14595 65.240816 
L 117.411793 60.685714 
L 116.692074 56.130612 
L 115.985955 51.57551 
L 115.493878 48.330488 
L 115.346603 47.020408 
L 114.849064 42.465306 
L 114.361457 37.910204 
L 113.883263 33.355102 
L 113.414 28.8 
" style="fill:none;stroke:#00009b;"/>
   </g>
   <g id="LineCollection_16">
    <path clip-path="url(#pab9e0de774)" d="M 388.8 224.261264 
L 381.967347 224.03638 
L 375.134694 223.806903 
L 368.302041 223.572595 
L 361.469388 223.333204 
L 354.636735 223.088455 
L 347.804082 222.838051 
L 340.971429 222.581668 
L 334.138776 222.318957 
L 327.306122 222.049536 
L 320.473469 221.772986 
L 313.640816 221.488853 
L 306.808163 221.196633 
L 299.97551 220.895777 
L 293.142857 220.585674 
L 286.310204 220.265651 
L 283.199383 220.114286 
L 279.477551 219.858418 
L 272.644898 219.371699 
L 265.812245 218.869378 
L 258.979592 218.350154 
L 252.146939 217.812561 
L 245.314286 217.254938 
L 238.481633 216.675396 
L 231.64898 216.071775 
L 226.106336 215.559184 
L 224.816327 215.400314 
L 217.983673 214.511803 
L 211.15102 213.583898 
L 204.318367 212.611898 
L 197.485714 211.590257 
L 193.803406 211.004082 
L 190.653061 210.367119 
L 183.820408 208.893896 
L 176.987755 207.334638 
L 173.382947 206.44898 
L 170.155102 205.478634 
L 163.322449 203.260604 
L 159.442869 201.893878 
L 156.489796 200.659314 
L 149.657143 197.535617 
L 149.272924 197.338776 
L 142.82449 193.528747 
L 141.706879 192.783673 
L 136.735387 189.044029 
" style="fill:none;stroke:#0000bb;"/>
    <path clip-path="url(#pab9e0de774)" d="M 114.932295 157.229809 
L 114.614615 156.342857 
L 113.082153 151.787755 
L 111.624154 147.232653 
L 110.232295 142.677551 
L 108.899529 138.122449 
L 108.661224 137.262442 
L 107.892337 133.567347 
L 106.986907 129.012245 
L 106.117593 124.457143 
L 105.281158 119.902041 
L 104.474768 115.346939 
L 103.695933 110.791837 
L 102.942452 106.236735 
L 102.212373 101.681633 
L 101.828571 99.200411 
L 101.601524 97.126531 
L 101.121489 92.571429 
L 100.656335 88.016327 
L 100.20505 83.461224 
L 99.766721 78.906122 
L 99.34052 74.35102 
L 98.925696 69.795918 
L 98.521564 65.240816 
L 98.127498 60.685714 
L 97.742924 56.130612 
L 97.367317 51.57551 
L 97.000194 47.020408 
L 96.641107 42.465306 
L 96.289646 37.910204 
L 95.945429 33.355102 
L 95.608104 28.8 
" style="fill:none;stroke:#0000bb;"/>
   </g>
   <g id="LineCollection_17">
    <path clip-path="url(#pab9e0de774)" d="M 388.8 233.468343 
L 381.967347 233.343055 
L 375.134694 233.214947 
L 368.302041 233.083874 
L 361.469388 232.949685 
L 354.636735 232.812215 
L 347.804082 232.671284 
L 340.971429 232.526701 
L 334.138776 232.378256 
L 327.306122 232.225721 
L 320.473469 232.068847 
L 313.640816 231.907364 
L 306.808163 231.740974 
L 299.97551 231.569351 
L 293.142857 231.392136 
L 286.310204 231.208932 
L 279.477551 231.019299 
L 272.644898 230.822749 
L 265.812245 230.618737 
L 258.979592 230.406651 
L 252.146939 230.185807 
L 245.314286 229.955429 
L 238.481633 229.714638 
L 231.64898 229.462432 
L 225.513085 229.22449 
L 224.816327 229.182256 
L 217.983673 228.744725 
L 211.15102 228.285242 
L 204.318367 227.801291 
L 197.485714 227.289912 
L 190.653061 226.747597 
L 183.820408 226.17015 
L 176.987755 225.552503 
L 170.155102 224.888468 
L 168.08905 224.669388 
L 163.322449 223.954038 
L 156.489796 222.839654 
L 149.657143 221.625345 
L 142.82449 220.290411 
L 142.026508 220.114286 
L 135.991837 218.355828 
L 129.159184 216.127785 
L 127.649831 215.559184 
L 122.326531 213.043057 
L 118.633445 211.004082 
L 115.493878 208.911037 
L 112.435414 206.44898 
L 108.661224 202.900113 
L 107.808322 201.893878 
L 104.466258 197.338776 
L 101.828571 193.315661 
L 101.564383 192.783673 
L 99.561983 188.228571 
L 97.740519 183.673469 
L 96.068942 179.118367 
L 94.995918 175.940634 
L 94.667298 174.563265 
L 93.671245 170.008163 
L 92.744774 165.453061 
L 91.878604 160.897959 
L 91.065132 156.342857 
L 90.298063 151.787755 
L 89.572136 147.232653 
L 88.882912 142.677551 
L 88.226616 138.122449 
L 88.163265 137.657943 
L 87.806352 133.567347 
L 87.428044 129.012245 
L 87.066857 124.457143 
L 86.72129 119.902041 
L 86.390023 115.346939 
L 86.071895 110.791837 
L 85.765876 106.236735 
L 85.471051 101.681633 
L 85.186602 97.126531 
L 84.911796 92.571429 
L 84.645974 88.016327 
L 84.388539 83.461224 
L 84.207665 80.160142 
" style="fill:none;stroke:#0000ff;"/>
    <path clip-path="url(#pab9e0de774)" d="M 82.319837 41.206059 
L 82.17758 37.910204 
L 81.985417 33.355102 
L 81.797486 28.8 
" style="fill:none;stroke:#0000ff;"/>
   </g>
   <g id="LineCollection_18">
    <path clip-path="url(#pab9e0de774)" d="M 388.8 239.916383 
L 381.967347 239.874942 
L 375.134694 239.832463 
L 368.302041 239.788893 
L 361.469388 239.744177 
L 354.636735 239.698254 
L 347.804082 239.651058 
L 340.971429 239.602518 
L 334.138776 239.552556 
L 327.306122 239.50109 
L 320.473469 239.448028 
L 313.640816 239.39327 
L 306.808163 239.336708 
L 299.97551 239.278223 
L 293.142857 239.217683 
L 286.310204 239.154944 
L 279.477551 239.089845 
L 272.644898 239.022209 
L 265.812245 238.951838 
L 258.979592 238.87851 
L 252.146939 238.801978 
L 245.314286 238.721961 
L 238.481633 238.638144 
L 231.64898 238.550165 
L 224.816327 238.457613 
L 217.983673 238.360014 
L 216.31098 238.334694 
L 211.15102 238.172947 
L 204.318367 237.946541 
L 197.485714 237.706766 
L 190.653061 237.451953 
L 183.820408 237.180107 
L 176.987755 236.888827 
L 170.155102 236.575194 
L 163.322449 236.235608 
L 156.489796 235.865577 
L 149.657143 235.459408 
L 142.82449 235.009758 
L 135.991837 234.506967 
L 129.159184 233.938031 
L 127.512267 233.779592 
L 122.326531 232.954541 
L 115.493878 231.690911 
L 108.661224 230.194243 
L 105.051539 229.22449 
L 104.026105 228.822717 
" style="fill:none;stroke:#006cff;"/>
    <path clip-path="url(#pab9e0de774)" d="M 80.74663 200.045354 
L 80.23955 197.338776 
L 79.485363 192.783673 
L 78.810887 188.228571 
L 78.201634 183.673469 
L 77.646588 179.118367 
L 77.137209 174.563265 
L 76.666759 170.008163 
L 76.22984 165.453061 
L 75.82207 160.897959 
L 75.43985 156.342857 
L 75.080189 151.787755 
L 74.740579 147.232653 
L 74.497959 143.79268 
L 74.459979 142.677551 
L 74.313581 138.122449 
L 74.174753 133.567347 
L 74.042784 129.012245 
L 73.917058 124.457143 
L 73.797033 119.902041 
L 73.682235 115.346939 
L 73.572244 110.791837 
L 73.466687 106.236735 
L 73.365233 101.681633 
L 73.267584 97.126531 
L 73.173475 92.571429 
L 73.082665 88.016327 
L 72.994937 83.461224 
L 72.910095 78.906122 
L 72.827958 74.35102 
L 72.748365 69.795918 
L 72.671166 65.240816 
L 72.596224 60.685714 
L 72.523413 56.130612 
L 72.452619 51.57551 
L 72.383734 47.020408 
L 72.31666 42.465306 
L 72.251306 37.910204 
L 72.187587 33.355102 
L 72.125425 28.8 
" style="fill:none;stroke:#006cff;"/>
   </g>
   <g id="LineCollection_19">
    <path clip-path="url(#pab9e0de774)" d="M 388.8 244.388883 
L 381.967347 244.373214 
L 375.134694 244.357149 
L 368.302041 244.34067 
L 361.469388 244.323755 
L 354.636735 244.30638 
L 347.804082 244.288522 
L 340.971429 244.270154 
L 334.138776 244.251247 
L 327.306122 244.23177 
L 320.473469 244.211688 
L 313.640816 244.190965 
L 306.808163 244.16956 
L 299.97551 244.147428 
L 298.977433 244.144082 
" style="fill:none;stroke:#6dff8a;"/>
    <path clip-path="url(#pab9e0de774)" d="M 259.977699 244.000319 
L 258.979592 243.996271 
L 252.146939 243.967359 
L 245.314286 243.937144 
L 238.481633 243.90551 
L 231.64898 243.872325 
L 224.816327 243.837438 
L 217.983673 243.800676 
L 211.15102 243.76184 
L 204.318367 243.720697 
L 197.485714 243.676976 
L 190.653061 243.630356 
L 183.820408 243.580456 
L 176.987755 243.526816 
L 170.155102 243.468879 
L 163.322449 243.405962 
L 156.489796 243.33721 
L 149.657143 243.261546 
L 142.82449 243.177581 
L 135.991837 243.083496 
L 129.159184 242.976848 
L 124.3097 242.889796 
L 122.326531 242.783136 
L 115.493878 242.35463 
L 108.661224 241.846026 
L 101.828571 241.225729 
L 94.995918 240.441669 
L 88.163265 239.401025 
L 83.254914 238.334694 
L 81.330612 237.526299 
L 75.710552 233.779592 
L 74.497959 232.496724 
L 72.898462 229.22449 
L 71.337497 224.669388 
L 70.161407 220.114286 
L 69.230961 215.559184 
L 68.468055 211.004082 
L 67.825296 206.44898 
L 67.665306 205.126867 
L 67.534729 201.893878 
L 67.374755 197.338776 
L 67.233628 192.783673 
L 67.107682 188.228571 
L 66.994185 183.673469 
L 66.891057 179.118367 
L 66.796681 174.563265 
L 66.709776 170.008163 
L 66.629316 165.453061 
L 66.554465 160.897959 
L 66.484536 156.342857 
L 66.418954 151.787755 
L 66.35724 147.232653 
L 66.298986 142.677551 
L 66.243844 138.122449 
L 66.191513 133.567347 
L 66.141735 129.012245 
L 66.094284 124.457143 
L 66.048962 119.902041 
L 66.005593 115.346939 
L 65.964025 110.791837 
L 65.924119 106.236735 
L 65.885754 101.681633 
L 65.848819 97.126531 
L 65.813217 92.571429 
L 65.778857 88.016327 
L 65.74566 83.461224 
L 65.713553 78.906122 
L 65.682468 74.35102 
L 65.652346 69.795918 
L 65.62313 65.240816 
L 65.594769 60.685714 
L 65.567217 56.130612 
L 65.54043 51.57551 
L 65.514368 47.020408 
L 65.488995 42.465306 
L 65.464276 37.910204 
L 65.440179 33.355102 
L 65.416675 28.8 
" style="fill:none;stroke:#6dff8a;"/>
   </g>
   <g id="LineCollection_20">
    <path clip-path="url(#pab9e0de774)" d="M 113.174027 247.444898 
L 108.661224 247.32522 
L 101.828571 247.104456 
L 94.995918 246.826021 
L 88.755818 246.489415 
" style="fill:none;stroke:#800000;"/>
    <path clip-path="url(#pab9e0de774)" d="M 61.447122 221.246445 
L 61.343316 220.114286 
L 61.01217 215.559184 
L 60.832653 212.550649 
" style="fill:none;stroke:#800000;"/>
   </g>
   <g id="patch_3">
    <path d="M 54 252 
L 54 28.8 
" style="fill:none;stroke:#000000;stroke-linecap:square;stroke-linejoin:miter;"/>
   </g>
   <g id="patch_4">
    <path d="M 388.8 252 
L 388.8 28.8 
" style="fill:none;stroke:#000000;stroke-linecap:square;stroke-linejoin:miter;"/>
   </g>
   <g id="patch_5">
    <path d="M 54 252 
L 388.8 252 
" style="fill:none;stroke:#000000;stroke-linecap:square;stroke-linejoin:miter;"/>
   </g>
   <g id="patch_6">
    <path d="M 54 28.8 
L 388.8 28.8 
" style="fill:none;stroke:#000000;stroke-linecap:square;stroke-linejoin:miter;"/>
   </g>
   <g id="matplotlib.axis_1">
    <g id="xtick_1">
     <g id="line2d_1">
      <path clip-path="url(#pab9e0de774)" d="M 54 252 
L 54 28.8 
" style="fill:none;stroke:#000000;stroke-dasharray:1.000000,3.000000;stroke-dashoffset:0.0;stroke-width:0.5;"/>
     </g>
     <g id="line2d_2">
      <defs>
       <path d="M 0 0 
L 0 -4 
" id="md72d364153" style="stroke:#000000;stroke-width:0.5;"/>
      </defs>
      <g>
       <use style="stroke:#000000;stroke-width:0.5;" x="54.0" xlink:href="#md72d364153" y="252.0"/>
      </g>
     </g>
     <g id="line2d_3">
      <defs>
       <path d="M 0 0 
L 0 4 
" id="m249afc113d" style="stroke:#000000;stroke-width:0.5;"/>
      </defs>
      <g>
       <use style="stroke:#000000;stroke-width:0.5;" x="54.0" xlink:href="#m249afc113d" y="28.8"/>
      </g>
     </g>
     <g id="text_1">
      <!-- 0 -->
      <defs>
       <path d="M 31.78125 66.40625 
Q 24.171875 66.40625 20.328125 58.90625 
Q 16.5 51.421875 16.5 36.375 
Q 16.5 21.390625 20.328125 13.890625 
Q 24.171875 6.390625 31.78125 6.390625 
Q 39.453125 6.390625 43.28125 13.890625 
Q 47.125 21.390625 47.125 36.375 
Q 47.125 51.421875 43.28125 58.90625 
Q 39.453125 66.40625 31.78125 66.40625 
M 31.78125 74.21875 
Q 44.046875 74.21875 50.515625 64.515625 
Q 56.984375 54.828125 56.984375 36.375 
Q 56.984375 17.96875 50.515625 8.265625 
Q 44.046875 -1.421875 31.78125 -1.421875 
Q 19.53125 -1.421875 13.0625 8.265625 
Q 6.59375 17.96875 6.59375 36.375 
Q 6.59375 54.828125 13.0625 64.515625 
Q 19.53125 74.21875 31.78125 74.21875 
" id="BitstreamVeraSans-Roman-30"/>
      </defs>
      <g transform="translate(50.81875 263.5984375)scale(0.1 -0.1)">
       <use xlink:href="#BitstreamVeraSans-Roman-30"/>
      </g>
     </g>
    </g>
    <g id="xtick_2">
     <g id="line2d_4">
      <path clip-path="url(#pab9e0de774)" d="M 120.96 252 
L 120.96 28.8 
" style="fill:none;stroke:#000000;stroke-dasharray:1.000000,3.000000;stroke-dashoffset:0.0;stroke-width:0.5;"/>
     </g>
     <g id="line2d_5">
      <g>
       <use style="stroke:#000000;stroke-width:0.5;" x="120.96" xlink:href="#md72d364153" y="252.0"/>
      </g>
     </g>
     <g id="line2d_6">
      <g>
       <use style="stroke:#000000;stroke-width:0.5;" x="120.96" xlink:href="#m249afc113d" y="28.8"/>
      </g>
     </g>
     <g id="text_2">
      <!-- 1 -->
      <defs>
       <path d="M 12.40625 8.296875 
L 28.515625 8.296875 
L 28.515625 63.921875 
L 10.984375 60.40625 
L 10.984375 69.390625 
L 28.421875 72.90625 
L 38.28125 72.90625 
L 38.28125 8.296875 
L 54.390625 8.296875 
L 54.390625 0 
L 12.40625 0 
z
" id="BitstreamVeraSans-Roman-31"/>
      </defs>
      <g transform="translate(117.77875 263.5984375)scale(0.1 -0.1)">
       <use xlink:href="#BitstreamVeraSans-Roman-31"/>
      </g>
     </g>
    </g>
    <g id="xtick_3">
     <g id="line2d_7">
      <path clip-path="url(#pab9e0de774)" d="M 187.92 252 
L 187.92 28.8 
" style="fill:none;stroke:#000000;stroke-dasharray:1.000000,3.000000;stroke-dashoffset:0.0;stroke-width:0.5;"/>
     </g>
     <g id="line2d_8">
      <g>
       <use style="stroke:#000000;stroke-width:0.5;" x="187.92" xlink:href="#md72d364153" y="252.0"/>
      </g>
     </g>
     <g id="line2d_9">
      <g>
       <use style="stroke:#000000;stroke-width:0.5;" x="187.92" xlink:href="#m249afc113d" y="28.8"/>
      </g>
     </g>
     <g id="text_3">
      <!-- 2 -->
      <defs>
       <path d="M 19.1875 8.296875 
L 53.609375 8.296875 
L 53.609375 0 
L 7.328125 0 
L 7.328125 8.296875 
Q 12.9375 14.109375 22.625 23.890625 
Q 32.328125 33.6875 34.8125 36.53125 
Q 39.546875 41.84375 41.421875 45.53125 
Q 43.3125 49.21875 43.3125 52.78125 
Q 43.3125 58.59375 39.234375 62.25 
Q 35.15625 65.921875 28.609375 65.921875 
Q 23.96875 65.921875 18.8125 64.3125 
Q 13.671875 62.703125 7.8125 59.421875 
L 7.8125 69.390625 
Q 13.765625 71.78125 18.9375 73 
Q 24.125 74.21875 28.421875 74.21875 
Q 39.75 74.21875 46.484375 68.546875 
Q 53.21875 62.890625 53.21875 53.421875 
Q 53.21875 48.921875 51.53125 44.890625 
Q 49.859375 40.875 45.40625 35.40625 
Q 44.1875 33.984375 37.640625 27.21875 
Q 31.109375 20.453125 19.1875 8.296875 
" id="BitstreamVeraSans-Roman-32"/>
      </defs>
      <g transform="translate(184.73875 263.5984375)scale(0.1 -0.1)">
       <use xlink:href="#BitstreamVeraSans-Roman-32"/>
      </g>
     </g>
    </g>
    <g id="xtick_4">
     <g id="line2d_10">
      <path clip-path="url(#pab9e0de774)" d="M 254.88 252 
L 254.88 28.8 
" style="fill:none;stroke:#000000;stroke-dasharray:1.000000,3.000000;stroke-dashoffset:0.0;stroke-width:0.5;"/>
     </g>
     <g id="line2d_11">
      <g>
       <use style="stroke:#000000;stroke-width:0.5;" x="254.88" xlink:href="#md72d364153" y="252.0"/>
      </g>
     </g>
     <g id="line2d_12">
      <g>
       <use style="stroke:#000000;stroke-width:0.5;" x="254.88" xlink:href="#m249afc113d" y="28.8"/>
      </g>
     </g>
     <g id="text_4">
      <!-- 3 -->
      <defs>
       <path d="M 40.578125 39.3125 
Q 47.65625 37.796875 51.625 33 
Q 55.609375 28.21875 55.609375 21.1875 
Q 55.609375 10.40625 48.1875 4.484375 
Q 40.765625 -1.421875 27.09375 -1.421875 
Q 22.515625 -1.421875 17.65625 -0.515625 
Q 12.796875 0.390625 7.625 2.203125 
L 7.625 11.71875 
Q 11.71875 9.328125 16.59375 8.109375 
Q 21.484375 6.890625 26.8125 6.890625 
Q 36.078125 6.890625 40.9375 10.546875 
Q 45.796875 14.203125 45.796875 21.1875 
Q 45.796875 27.640625 41.28125 31.265625 
Q 36.765625 34.90625 28.71875 34.90625 
L 20.21875 34.90625 
L 20.21875 43.015625 
L 29.109375 43.015625 
Q 36.375 43.015625 40.234375 45.921875 
Q 44.09375 48.828125 44.09375 54.296875 
Q 44.09375 59.90625 40.109375 62.90625 
Q 36.140625 65.921875 28.71875 65.921875 
Q 24.65625 65.921875 20.015625 65.03125 
Q 15.375 64.15625 9.8125 62.3125 
L 9.8125 71.09375 
Q 15.4375 72.65625 20.34375 73.4375 
Q 25.25 74.21875 29.59375 74.21875 
Q 40.828125 74.21875 47.359375 69.109375 
Q 53.90625 64.015625 53.90625 55.328125 
Q 53.90625 49.265625 50.4375 45.09375 
Q 46.96875 40.921875 40.578125 39.3125 
" id="BitstreamVeraSans-Roman-33"/>
      </defs>
      <g transform="translate(251.69875 263.5984375)scale(0.1 -0.1)">
       <use xlink:href="#BitstreamVeraSans-Roman-33"/>
      </g>
     </g>
    </g>
    <g id="xtick_5">
     <g id="line2d_13">
      <path clip-path="url(#pab9e0de774)" d="M 321.84 252 
L 321.84 28.8 
" style="fill:none;stroke:#000000;stroke-dasharray:1.000000,3.000000;stroke-dashoffset:0.0;stroke-width:0.5;"/>
     </g>
     <g id="line2d_14">
      <g>
       <use style="stroke:#000000;stroke-width:0.5;" x="321.84" xlink:href="#md72d364153" y="252.0"/>
      </g>
     </g>
     <g id="line2d_15">
      <g>
       <use style="stroke:#000000;stroke-width:0.5;" x="321.84" xlink:href="#m249afc113d" y="28.8"/>
      </g>
     </g>
     <g id="text_5">
      <!-- 4 -->
      <defs>
       <path d="M 37.796875 64.3125 
L 12.890625 25.390625 
L 37.796875 25.390625 
z
M 35.203125 72.90625 
L 47.609375 72.90625 
L 47.609375 25.390625 
L 58.015625 25.390625 
L 58.015625 17.1875 
L 47.609375 17.1875 
L 47.609375 0 
L 37.796875 0 
L 37.796875 17.1875 
L 4.890625 17.1875 
L 4.890625 26.703125 
z
" id="BitstreamVeraSans-Roman-34"/>
      </defs>
      <g transform="translate(318.65875 263.5984375)scale(0.1 -0.1)">
       <use xlink:href="#BitstreamVeraSans-Roman-34"/>
      </g>
     </g>
    </g>
    <g id="xtick_6">
     <g id="line2d_16">
      <path clip-path="url(#pab9e0de774)" d="M 388.8 252 
L 388.8 28.8 
" style="fill:none;stroke:#000000;stroke-dasharray:1.000000,3.000000;stroke-dashoffset:0.0;stroke-width:0.5;"/>
     </g>
     <g id="line2d_17">
      <g>
       <use style="stroke:#000000;stroke-width:0.5;" x="388.8" xlink:href="#md72d364153" y="252.0"/>
      </g>
     </g>
     <g id="line2d_18">
      <g>
       <use style="stroke:#000000;stroke-width:0.5;" x="388.8" xlink:href="#m249afc113d" y="28.8"/>
      </g>
     </g>
     <g id="text_6">
      <!-- 5 -->
      <defs>
       <path d="M 10.796875 72.90625 
L 49.515625 72.90625 
L 49.515625 64.59375 
L 19.828125 64.59375 
L 19.828125 46.734375 
Q 21.96875 47.46875 24.109375 47.828125 
Q 26.265625 48.1875 28.421875 48.1875 
Q 40.625 48.1875 47.75 41.5 
Q 54.890625 34.8125 54.890625 23.390625 
Q 54.890625 11.625 47.5625 5.09375 
Q 40.234375 -1.421875 26.90625 -1.421875 
Q 22.3125 -1.421875 17.546875 -0.640625 
Q 12.796875 0.140625 7.71875 1.703125 
L 7.71875 11.625 
Q 12.109375 9.234375 16.796875 8.0625 
Q 21.484375 6.890625 26.703125 6.890625 
Q 35.15625 6.890625 40.078125 11.328125 
Q 45.015625 15.765625 45.015625 23.390625 
Q 45.015625 31 40.078125 35.4375 
Q 35.15625 39.890625 26.703125 39.890625 
Q 22.75 39.890625 18.8125 39.015625 
Q 14.890625 38.140625 10.796875 36.28125 
z
" id="BitstreamVeraSans-Roman-35"/>
      </defs>
      <g transform="translate(385.61875 263.5984375)scale(0.1 -0.1)">
       <use xlink:href="#BitstreamVeraSans-Roman-35"/>
      </g>
     </g>
    </g>
   </g>
   <g id="matplotlib.axis_2">
    <g id="ytick_1">
     <g id="line2d_19">
      <path clip-path="url(#pab9e0de774)" d="M 54 252 
L 388.8 252 
" style="fill:none;stroke:#000000;stroke-dasharray:1.000000,3.000000;stroke-dashoffset:0.0;stroke-width:0.5;"/>
     </g>
     <g id="line2d_20">
      <defs>
       <path d="M 0 0 
L 4 0 
" id="mcaa65d074c" style="stroke:#000000;stroke-width:0.5;"/>
      </defs>
      <g>
       <use style="stroke:#000000;stroke-width:0.5;" x="54.0" xlink:href="#mcaa65d074c" y="252.0"/>
      </g>
     </g>
     <g id="line2d_21">
      <defs>
       <path d="M 0 0 
L -4 0 
" id="m0418b6a192" style="stroke:#000000;stroke-width:0.5;"/>
      </defs>
      <g>
       <use style="stroke:#000000;stroke-width:0.5;" x="388.8" xlink:href="#m0418b6a192" y="252.0"/>
      </g>
     </g>
     <g id="text_7">
      <!-- 0 -->
      <g transform="translate(43.6375 254.759375)scale(0.1 -0.1)">
       <use xlink:href="#BitstreamVeraSans-Roman-30"/>
      </g>
     </g>
    </g>
    <g id="ytick_2">
     <g id="line2d_22">
      <path clip-path="url(#pab9e0de774)" d="M 54 207.36 
L 388.8 207.36 
" style="fill:none;stroke:#000000;stroke-dasharray:1.000000,3.000000;stroke-dashoffset:0.0;stroke-width:0.5;"/>
     </g>
     <g id="line2d_23">
      <g>
       <use style="stroke:#000000;stroke-width:0.5;" x="54.0" xlink:href="#mcaa65d074c" y="207.36"/>
      </g>
     </g>
     <g id="line2d_24">
      <g>
       <use style="stroke:#000000;stroke-width:0.5;" x="388.8" xlink:href="#m0418b6a192" y="207.36"/>
      </g>
     </g>
     <g id="text_8">
      <!-- 1 -->
      <g transform="translate(43.6375 210.119375)scale(0.1 -0.1)">
       <use xlink:href="#BitstreamVeraSans-Roman-31"/>
      </g>
     </g>
    </g>
    <g id="ytick_3">
     <g id="line2d_25">
      <path clip-path="url(#pab9e0de774)" d="M 54 162.72 
L 388.8 162.72 
" style="fill:none;stroke:#000000;stroke-dasharray:1.000000,3.000000;stroke-dashoffset:0.0;stroke-width:0.5;"/>
     </g>
     <g id="line2d_26">
      <g>
       <use style="stroke:#000000;stroke-width:0.5;" x="54.0" xlink:href="#mcaa65d074c" y="162.72"/>
      </g>
     </g>
     <g id="line2d_27">
      <g>
       <use style="stroke:#000000;stroke-width:0.5;" x="388.8" xlink:href="#m0418b6a192" y="162.72"/>
      </g>
     </g>
     <g id="text_9">
      <!-- 2 -->
      <g transform="translate(43.6375 165.479375)scale(0.1 -0.1)">
       <use xlink:href="#BitstreamVeraSans-Roman-32"/>
      </g>
     </g>
    </g>
    <g id="ytick_4">
     <g id="line2d_28">
      <path clip-path="url(#pab9e0de774)" d="M 54 118.08 
L 388.8 118.08 
" style="fill:none;stroke:#000000;stroke-dasharray:1.000000,3.000000;stroke-dashoffset:0.0;stroke-width:0.5;"/>
     </g>
     <g id="line2d_29">
      <g>
       <use style="stroke:#000000;stroke-width:0.5;" x="54.0" xlink:href="#mcaa65d074c" y="118.08"/>
      </g>
     </g>
     <g id="line2d_30">
      <g>
       <use style="stroke:#000000;stroke-width:0.5;" x="388.8" xlink:href="#m0418b6a192" y="118.08"/>
      </g>
     </g>
     <g id="text_10">
      <!-- 3 -->
      <g transform="translate(43.6375 120.839375)scale(0.1 -0.1)">
       <use xlink:href="#BitstreamVeraSans-Roman-33"/>
      </g>
     </g>
    </g>
    <g id="ytick_5">
     <g id="line2d_31">
      <path clip-path="url(#pab9e0de774)" d="M 54 73.44 
L 388.8 73.44 
" style="fill:none;stroke:#000000;stroke-dasharray:1.000000,3.000000;stroke-dashoffset:0.0;stroke-width:0.5;"/>
     </g>
     <g id="line2d_32">
      <g>
       <use style="stroke:#000000;stroke-width:0.5;" x="54.0" xlink:href="#mcaa65d074c" y="73.44"/>
      </g>
     </g>
     <g id="line2d_33">
      <g>
       <use style="stroke:#000000;stroke-width:0.5;" x="388.8" xlink:href="#m0418b6a192" y="73.44"/>
      </g>
     </g>
     <g id="text_11">
      <!-- 4 -->
      <g transform="translate(43.6375 76.199375)scale(0.1 -0.1)">
       <use xlink:href="#BitstreamVeraSans-Roman-34"/>
      </g>
     </g>
    </g>
    <g id="ytick_6">
     <g id="line2d_34">
      <path clip-path="url(#pab9e0de774)" d="M 54 28.8 
L 388.8 28.8 
" style="fill:none;stroke:#000000;stroke-dasharray:1.000000,3.000000;stroke-dashoffset:0.0;stroke-width:0.5;"/>
     </g>
     <g id="line2d_35">
      <g>
       <use style="stroke:#000000;stroke-width:0.5;" x="54.0" xlink:href="#mcaa65d074c" y="28.8"/>
      </g>
     </g>
     <g id="line2d_36">
      <g>
       <use style="stroke:#000000;stroke-width:0.5;" x="388.8" xlink:href="#m0418b6a192" y="28.8"/>
      </g>
     </g>
     <g id="text_12">
      <!-- 5 -->
      <g transform="translate(43.6375 31.559375)scale(0.1 -0.1)">
       <use xlink:href="#BitstreamVeraSans-Roman-35"/>
      </g>
     </g>
    </g>
   </g>
   <g id="text_13">
    <g clip-path="url(#pab9e0de774)">
     <!-- 0.003 -->
     <defs>
      <path d="M 10.6875 12.40625 
L 21 12.40625 
L 21 0 
L 10.6875 0 
z
" id="BitstreamVeraSans-Roman-2e"/>
     </defs>
     <g style="fill:#000080;" transform="translate(341.215589959 45.0153917362)rotate(-326.1127752610155)scale(0.1 -0.1)">
      <use xlink:href="#BitstreamVeraSans-Roman-30"/>
      <use x="63.623046875" xlink:href="#BitstreamVeraSans-Roman-2e"/>
      <use x="95.41015625" xlink:href="#BitstreamVeraSans-Roman-30"/>
      <use x="159.033203125" xlink:href="#BitstreamVeraSans-Roman-30"/>
      <use x="222.65625" xlink:href="#BitstreamVeraSans-Roman-33"/>
     </g>
    </g>
   </g>
   <g id="text_14">
    <g clip-path="url(#pab9e0de774)">
     <!-- 0.007 -->
     <defs>
      <path d="M 8.203125 72.90625 
L 55.078125 72.90625 
L 55.078125 68.703125 
L 28.609375 0 
L 18.3125 0 
L 43.21875 64.59375 
L 8.203125 64.59375 
z
" id="BitstreamVeraSans-Roman-37"/>
     </defs>
     <g style="fill:#000080;" transform="translate(312.181160738 68.8800534991)rotate(-327.0459036621503)scale(0.1 -0.1)">
      <use xlink:href="#BitstreamVeraSans-Roman-30"/>
      <use x="63.623046875" xlink:href="#BitstreamVeraSans-Roman-2e"/>
      <use x="95.41015625" xlink:href="#BitstreamVeraSans-Roman-30"/>
      <use x="159.033203125" xlink:href="#BitstreamVeraSans-Roman-30"/>
      <use x="222.65625" xlink:href="#BitstreamVeraSans-Roman-37"/>
     </g>
    </g>
   </g>
   <g id="text_15">
    <g clip-path="url(#pab9e0de774)">
     <!-- 0.014 -->
     <g style="fill:#000080;" transform="translate(306.363920576 106.692338349)rotate(-334.53038262170446)scale(0.1 -0.1)">
      <use xlink:href="#BitstreamVeraSans-Roman-30"/>
      <use x="63.623046875" xlink:href="#BitstreamVeraSans-Roman-2e"/>
      <use x="95.41015625" xlink:href="#BitstreamVeraSans-Roman-30"/>
      <use x="159.033203125" xlink:href="#BitstreamVeraSans-Roman-31"/>
      <use x="222.65625" xlink:href="#BitstreamVeraSans-Roman-34"/>
     </g>
    </g>
   </g>
   <g id="text_16">
    <g clip-path="url(#pab9e0de774)">
     <!-- 0.030 -->
     <g style="fill:#000080;" transform="translate(196.860882222 44.9894649974)rotate(-299.24711059805037)scale(0.1 -0.1)">
      <use xlink:href="#BitstreamVeraSans-Roman-30"/>
      <use x="63.623046875" xlink:href="#BitstreamVeraSans-Roman-2e"/>
      <use x="95.41015625" xlink:href="#BitstreamVeraSans-Roman-30"/>
      <use x="159.033203125" xlink:href="#BitstreamVeraSans-Roman-33"/>
      <use x="222.65625" xlink:href="#BitstreamVeraSans-Roman-30"/>
     </g>
    </g>
   </g>
   <g id="text_17">
    <g clip-path="url(#pab9e0de774)">
     <!-- 0.062 -->
     <defs>
      <path d="M 33.015625 40.375 
Q 26.375 40.375 22.484375 35.828125 
Q 18.609375 31.296875 18.609375 23.390625 
Q 18.609375 15.53125 22.484375 10.953125 
Q 26.375 6.390625 33.015625 6.390625 
Q 39.65625 6.390625 43.53125 10.953125 
Q 47.40625 15.53125 47.40625 23.390625 
Q 47.40625 31.296875 43.53125 35.828125 
Q 39.65625 40.375 33.015625 40.375 
M 52.59375 71.296875 
L 52.59375 62.3125 
Q 48.875 64.0625 45.09375 64.984375 
Q 41.3125 65.921875 37.59375 65.921875 
Q 27.828125 65.921875 22.671875 59.328125 
Q 17.53125 52.734375 16.796875 39.40625 
Q 19.671875 43.65625 24.015625 45.921875 
Q 28.375 48.1875 33.59375 48.1875 
Q 44.578125 48.1875 50.953125 41.515625 
Q 57.328125 34.859375 57.328125 23.390625 
Q 57.328125 12.15625 50.6875 5.359375 
Q 44.046875 -1.421875 33.015625 -1.421875 
Q 20.359375 -1.421875 13.671875 8.265625 
Q 6.984375 17.96875 6.984375 36.375 
Q 6.984375 53.65625 15.1875 63.9375 
Q 23.390625 74.21875 37.203125 74.21875 
Q 40.921875 74.21875 44.703125 73.484375 
Q 48.484375 72.75 52.59375 71.296875 
" id="BitstreamVeraSans-Roman-36"/>
     </defs>
     <g style="fill:#000084;" transform="translate(288.317064227 164.677263288)rotate(-346.03809079425264)scale(0.1 -0.1)">
      <use xlink:href="#BitstreamVeraSans-Roman-30"/>
      <use x="63.623046875" xlink:href="#BitstreamVeraSans-Roman-2e"/>
      <use x="95.41015625" xlink:href="#BitstreamVeraSans-Roman-30"/>
      <use x="159.033203125" xlink:href="#BitstreamVeraSans-Roman-36"/>
      <use x="222.65625" xlink:href="#BitstreamVeraSans-Roman-32"/>
     </g>
    </g>
   </g>
   <g id="text_18">
    <g clip-path="url(#pab9e0de774)">
     <!-- 0.127 -->
     <g style="fill:#00008d;" transform="translate(157.468043826 114.133398194)rotate(-304.0007128416536)scale(0.1 -0.1)">
      <use xlink:href="#BitstreamVeraSans-Roman-30"/>
      <use x="63.623046875" xlink:href="#BitstreamVeraSans-Roman-2e"/>
      <use x="95.41015625" xlink:href="#BitstreamVeraSans-Roman-31"/>
      <use x="159.033203125" xlink:href="#BitstreamVeraSans-Roman-32"/>
      <use x="222.65625" xlink:href="#BitstreamVeraSans-Roman-37"/>
     </g>
    </g>
   </g>
   <g id="text_19">
    <g clip-path="url(#pab9e0de774)">
     <!-- 0.264 -->
     <g style="fill:#00009b;" transform="translate(278.624380337 207.248572323)rotate(-354.25092539416494)scale(0.1 -0.1)">
      <use xlink:href="#BitstreamVeraSans-Roman-30"/>
      <use x="63.623046875" xlink:href="#BitstreamVeraSans-Roman-2e"/>
      <use x="95.41015625" xlink:href="#BitstreamVeraSans-Roman-32"/>
      <use x="159.033203125" xlink:href="#BitstreamVeraSans-Roman-36"/>
      <use x="222.65625" xlink:href="#BitstreamVeraSans-Roman-34"/>
     </g>
    </g>
   </g>
   <g id="text_20">
    <g clip-path="url(#pab9e0de774)">
     <!-- 0.546 -->
     <g style="fill:#0000bb;" transform="translate(113.456338427 164.273161122)rotate(-304.1876830359456)scale(0.1 -0.1)">
      <use xlink:href="#BitstreamVeraSans-Roman-30"/>
      <use x="63.623046875" xlink:href="#BitstreamVeraSans-Roman-2e"/>
      <use x="95.41015625" xlink:href="#BitstreamVeraSans-Roman-35"/>
      <use x="159.033203125" xlink:href="#BitstreamVeraSans-Roman-34"/>
      <use x="222.65625" xlink:href="#BitstreamVeraSans-Roman-36"/>
     </g>
    </g>
   </g>
   <g id="text_21">
    <g clip-path="url(#pab9e0de774)">
     <!-- 1.129 -->
     <defs>
      <path d="M 10.984375 1.515625 
L 10.984375 10.5 
Q 14.703125 8.734375 18.5 7.8125 
Q 22.3125 6.890625 25.984375 6.890625 
Q 35.75 6.890625 40.890625 13.453125 
Q 46.046875 20.015625 46.78125 33.40625 
Q 43.953125 29.203125 39.59375 26.953125 
Q 35.25 24.703125 29.984375 24.703125 
Q 19.046875 24.703125 12.671875 31.3125 
Q 6.296875 37.9375 6.296875 49.421875 
Q 6.296875 60.640625 12.9375 67.421875 
Q 19.578125 74.21875 30.609375 74.21875 
Q 43.265625 74.21875 49.921875 64.515625 
Q 56.59375 54.828125 56.59375 36.375 
Q 56.59375 19.140625 48.40625 8.859375 
Q 40.234375 -1.421875 26.421875 -1.421875 
Q 22.703125 -1.421875 18.890625 -0.6875 
Q 15.09375 0.046875 10.984375 1.515625 
M 30.609375 32.421875 
Q 37.25 32.421875 41.125 36.953125 
Q 45.015625 41.5 45.015625 49.421875 
Q 45.015625 57.28125 41.125 61.84375 
Q 37.25 66.40625 30.609375 66.40625 
Q 23.96875 66.40625 20.09375 61.84375 
Q 16.21875 57.28125 16.21875 49.421875 
Q 16.21875 41.5 20.09375 36.953125 
Q 23.96875 32.421875 30.609375 32.421875 
" id="BitstreamVeraSans-Roman-39"/>
     </defs>
     <g style="fill:#0000ff;" transform="translate(79.7621924418 46.521692338)rotate(-272.769400984124)scale(0.1 -0.1)">
      <use xlink:href="#BitstreamVeraSans-Roman-31"/>
      <use x="63.623046875" xlink:href="#BitstreamVeraSans-Roman-2e"/>
      <use x="95.41015625" xlink:href="#BitstreamVeraSans-Roman-31"/>
      <use x="159.033203125" xlink:href="#BitstreamVeraSans-Roman-32"/>
      <use x="222.65625" xlink:href="#BitstreamVeraSans-Roman-39"/>
     </g>
    </g>
   </g>
   <g id="text_22">
    <g clip-path="url(#pab9e0de774)">
     <!-- 2.336 -->
     <g style="fill:#006cff;" transform="translate(77.0698280942 208.508253059)rotate(-308.6404383416839)scale(0.1 -0.1)">
      <use xlink:href="#BitstreamVeraSans-Roman-32"/>
      <use x="63.623046875" xlink:href="#BitstreamVeraSans-Roman-2e"/>
      <use x="95.41015625" xlink:href="#BitstreamVeraSans-Roman-33"/>
      <use x="159.033203125" xlink:href="#BitstreamVeraSans-Roman-33"/>
      <use x="222.65625" xlink:href="#BitstreamVeraSans-Roman-36"/>
     </g>
    </g>
   </g>
   <g id="text_23">
    <g clip-path="url(#pab9e0de774)">
     <!-- 4.833 -->
     <defs>
      <path d="M 31.78125 34.625 
Q 24.75 34.625 20.71875 30.859375 
Q 16.703125 27.09375 16.703125 20.515625 
Q 16.703125 13.921875 20.71875 10.15625 
Q 24.75 6.390625 31.78125 6.390625 
Q 38.8125 6.390625 42.859375 10.171875 
Q 46.921875 13.96875 46.921875 20.515625 
Q 46.921875 27.09375 42.890625 30.859375 
Q 38.875 34.625 31.78125 34.625 
M 21.921875 38.8125 
Q 15.578125 40.375 12.03125 44.71875 
Q 8.5 49.078125 8.5 55.328125 
Q 8.5 64.0625 14.71875 69.140625 
Q 20.953125 74.21875 31.78125 74.21875 
Q 42.671875 74.21875 48.875 69.140625 
Q 55.078125 64.0625 55.078125 55.328125 
Q 55.078125 49.078125 51.53125 44.71875 
Q 48 40.375 41.703125 38.8125 
Q 48.828125 37.15625 52.796875 32.3125 
Q 56.78125 27.484375 56.78125 20.515625 
Q 56.78125 9.90625 50.3125 4.234375 
Q 43.84375 -1.421875 31.78125 -1.421875 
Q 19.734375 -1.421875 13.25 4.234375 
Q 6.78125 9.90625 6.78125 20.515625 
Q 6.78125 27.484375 10.78125 32.3125 
Q 14.796875 37.15625 21.921875 38.8125 
M 18.3125 54.390625 
Q 18.3125 48.734375 21.84375 45.5625 
Q 25.390625 42.390625 31.78125 42.390625 
Q 38.140625 42.390625 41.71875 45.5625 
Q 45.3125 48.734375 45.3125 54.390625 
Q 45.3125 60.0625 41.71875 63.234375 
Q 38.140625 66.40625 31.78125 66.40625 
Q 25.390625 66.40625 21.84375 63.234375 
Q 18.3125 60.0625 18.3125 54.390625 
" id="BitstreamVeraSans-Roman-38"/>
     </defs>
     <g style="fill:#6dff8a;" transform="translate(265.153428616 246.782832322)rotate(-359.78910176982987)scale(0.1 -0.1)">
      <use xlink:href="#BitstreamVeraSans-Roman-34"/>
      <use x="63.623046875" xlink:href="#BitstreamVeraSans-Roman-2e"/>
      <use x="95.41015625" xlink:href="#BitstreamVeraSans-Roman-38"/>
      <use x="159.033203125" xlink:href="#BitstreamVeraSans-Roman-33"/>
      <use x="222.65625" xlink:href="#BitstreamVeraSans-Roman-33"/>
     </g>
    </g>
   </g>
   <g id="text_24">
    <g clip-path="url(#pab9e0de774)">
     <!-- 10.000 -->
     <g style="fill:#800000;" transform="translate(51.9202352821 233.130326529)rotate(-317.59994726247464)scale(0.1 -0.1)">
      <use xlink:href="#BitstreamVeraSans-Roman-31"/>
      <use x="63.623046875" xlink:href="#BitstreamVeraSans-Roman-30"/>
      <use x="127.24609375" xlink:href="#BitstreamVeraSans-Roman-2e"/>
      <use x="159.033203125" xlink:href="#BitstreamVeraSans-Roman-30"/>
      <use x="222.65625" xlink:href="#BitstreamVeraSans-Roman-30"/>
      <use x="286.279296875" xlink:href="#BitstreamVeraSans-Roman-30"/>
     </g>
    </g>
   </g>
  </g>
 </g>
 <defs>
  <clipPath id="pab9e0de774">
   <rect height="223.2" width="334.8" x="54.0" y="28.8"/>
  </clipPath>
 </defs>
</svg>
