<?xml version="1.0" encoding="UTF-8" standalone="no"?>
<svg
   xmlns:dc="http://purl.org/dc/elements/1.1/"
   xmlns:cc="http://creativecommons.org/ns#"
   xmlns:rdf="http://www.w3.org/1999/02/22-rdf-syntax-ns#"
   xmlns:svg="http://www.w3.org/2000/svg"
   xmlns="http://www.w3.org/2000/svg"
   xmlns:sodipodi="http://sodipodi.sourceforge.net/DTD/sodipodi-0.dtd"
   xmlns:inkscape="http://www.inkscape.org/namespaces/inkscape"
   version="1.1"
   width="158.01567"
   height="158.01793"
   id="svg2"
   inkscape:version="0.92.2 5c3e80d, 2017-08-06"
   sodipodi:docname="triangular_numbers_2.svg"
   inkscape:export-filename="/home/cnovak/src/latex/Journal/images/triangular_numbers_2.png"
   inkscape:export-xdpi="96"
   inkscape:export-ydpi="96">
  <sodipodi:namedview
     pagecolor="#ffffff"
     bordercolor="#666666"
     borderopacity="1"
     objecttolerance="10"
     gridtolerance="10"
     guidetolerance="10"
     inkscape:pageopacity="0"
     inkscape:pageshadow="2"
     inkscape:window-width="1263"
     inkscape:window-height="845"
     id="namedview3450"
     showgrid="true"
     inkscape:snap-grids="true"
     inkscape:snap-page="true"
     inkscape:snap-object-midpoints="true"
     fit-margin-top="10"
     fit-margin-left="10"
     fit-margin-right="10"
     fit-margin-bottom="10"
     inkscape:zoom="2.9644263"
     inkscape:cx="72.210947"
     inkscape:cy="67.489516"
     inkscape:window-x="65"
     inkscape:window-y="110"
     inkscape:window-maximized="0"
     inkscape:current-layer="svg2">
    <inkscape:grid
       type="xygrid"
       id="grid3674"
       spacingx="10"
       spacingy="10"
       empspacing="50"
       originx="-120.99468"
       originy="-100.99159" />
  </sodipodi:namedview>
  <defs
     id="defs4">
    <clipPath
       id="clipPath4159">
      <path
         d="m 0,4 2380,0 0,166 L 0,170 0,4 Z"
         id="path4161"
         inkscape:connector-curvature="0" />
    </clipPath>
    <clipPath
       id="clipPath4328">
      <path
         d="m 0,4 1280,0 0,166 L 0,170 0,4 Z"
         id="path4330"
         inkscape:connector-curvature="0" />
    </clipPath>
    <clipPath
       id="clipPath4425">
      <path
         d="m 0,0.898438 600,0 0,159.102002 -600,0 L 0,0.898438 Z"
         id="path4427"
         inkscape:connector-curvature="0" />
    </clipPath>
    <clipPath
       id="clipPath4485">
      <path
         d="m 0,0.898438 600,0 0,159.102002 -600,0 L 0,0.898438 Z"
         id="path4487"
         inkscape:connector-curvature="0" />
    </clipPath>
  </defs>
  <metadata
     id="metadata7">
    <rdf:RDF>
      <cc:Work
         rdf:about="">
        <dc:format>image/svg+xml</dc:format>
        <dc:type
           rdf:resource="http://purl.org/dc/dcmitype/StillImage" />
        <dc:title />
      </cc:Work>
    </rdf:RDF>
  </metadata>
  <path
     inkscape:connector-curvature="0"
     style="fill:#008000;fill-opacity:1;stroke:none"
     id="path3959"
     d="m 26.862034,104.61954 a 9,9.0000002 0 1 1 -15.71343,8.77998 9,9.0000002 0 1 1 15.71343,-8.77998 z" />
  <path
     inkscape:connector-curvature="0"
     style="fill:#008000;fill-opacity:1;stroke:none"
     id="path3967"
     d="m 26.862039,74.619538 a 9.0000001,9 0 1 1 -15.71343,8.77998 9.0000001,9 0 1 1 15.71343,-8.77998 z" />
  <path
     inkscape:connector-curvature="0"
     style="fill:#008000;fill-opacity:1;stroke:none"
     id="path3973"
     d="m 26.862039,44.619542 a 9,9.0000002 0 1 1 -15.71343,8.779973 9,9.0000002 0 1 1 15.71343,-8.779973 z" />
  <path
     inkscape:connector-curvature="0"
     style="fill:#008000;fill-opacity:1;stroke:none"
     id="path3977"
     d="m 26.862034,14.619541 a 9.0000001,9 0 1 1 -15.71342,8.779974 9.0000001,9 0 1 1 15.71342,-8.779974 z" />
  <path
     inkscape:connector-curvature="0"
     style="fill:#ff0000;fill-opacity:1;stroke:none"
     id="path3959-1"
     d="m 26.862034,134.61954 a 9,9.0000002 0 1 1 -15.71342,8.77998 9,9.0000002 0 1 1 15.71342,-8.77998 z" />
  <path
     inkscape:connector-curvature="0"
     style="fill:#ff0000;fill-opacity:1;stroke:none"
     id="path3959-9"
     d="m 143.39531,26.866249 a 9.0000002,9 0 1 1 -8.77998,-15.713416 9.0000002,9 0 1 1 8.77998,15.713416 z" />
  <path
     inkscape:connector-curvature="0"
     style="fill:#008000;fill-opacity:1;stroke:none"
     id="path3967-1"
     d="m 113.39532,26.866249 a 9.000001,9.0000011 0 1 1 -8.77999,-15.713429 9.000001,9.0000011 0 0 1 8.77999,15.713429 z" />
  <path
     inkscape:connector-curvature="0"
     style="fill:#008000;fill-opacity:1;stroke:none"
     id="path3973-0"
     d="m 83.395314,26.866259 a 9.0000005,9.0000003 0 1 1 -8.77998,-15.713433 9.0000005,9.0000003 0 0 1 8.77998,15.713433 z" />
  <path
     inkscape:connector-curvature="0"
     style="fill:#008000;fill-opacity:1;stroke:none"
     id="path3977-2"
     d="m 53.395314,26.866259 a 9,9.0000001 0 1 1 -8.77998,-15.713417 9,9.0000001 0 1 1 8.77998,15.713417 z" />
  <path
     inkscape:connector-curvature="0"
     style="fill:#000000;fill-opacity:1;stroke:none"
     id="path3959-9-9"
     d="m 143.39531,56.866226 a 9.0000002,9 0 1 1 -8.77998,-15.713417 9.0000002,9 0 1 1 8.77998,15.713417 z" />
  <path
     inkscape:connector-curvature="0"
     style="fill:#ff0000;fill-opacity:1;stroke:none"
     id="path3967-1-2"
     d="m 113.39532,56.866226 a 9.0000023,9.0000024 0 1 1 -8.77999,-15.71343 9.0000023,9.0000024 0 0 1 8.77999,15.71343 z" />
  <path
     inkscape:connector-curvature="0"
     style="fill:#008000;fill-opacity:1;stroke:none"
     id="path3973-0-2"
     d="m 83.395314,56.866236 a 9.0000018,9.0000016 0 0 1 -8.77998,-15.713434 9.0000018,9.0000016 0 0 1 8.77998,15.713434 z" />
  <path
     inkscape:connector-curvature="0"
     style="fill:#008000;fill-opacity:1;stroke:none"
     id="path3977-2-1"
     d="m 53.395314,56.866236 a 9,9.0000001 0 1 1 -8.77998,-15.713418 9,9.0000001 0 1 1 8.77998,15.713418 z" />
  <path
     inkscape:connector-curvature="0"
     style="fill:#000000;fill-opacity:1;stroke:none"
     id="path3959-9-6"
     d="m 143.39531,86.866236 a 9.0000002,9 0 1 1 -8.77998,-15.71342 9.0000002,9 0 1 1 8.77998,15.71342 z" />
  <path
     inkscape:connector-curvature="0"
     style="fill:#000000;fill-opacity:1;stroke:none"
     id="path3967-1-3"
     d="m 113.39532,86.866236 a 9.0000014,9.0000015 0 0 1 -8.77999,-15.71343 9.0000014,9.0000015 0 1 1 8.77999,15.71343 z" />
  <path
     inkscape:connector-curvature="0"
     style="fill:#ff0000;fill-opacity:1;stroke:none"
     id="path3973-0-22"
     d="m 83.395314,86.866246 a 9.0000006,9.0000004 0 0 1 -8.77998,-15.71343 9.0000006,9.0000004 0 0 1 8.77998,15.71343 z" />
  <path
     inkscape:connector-curvature="0"
     style="fill:#008000;fill-opacity:1;stroke:none"
     id="path3977-2-4"
     d="m 53.395314,86.866246 a 9,9.0000001 0 1 1 -8.77998,-15.71342 9,9.0000001 0 1 1 8.77998,15.71342 z" />
  <path
     inkscape:connector-curvature="0"
     style="fill:#000000;fill-opacity:1;stroke:none"
     id="path3959-9-9-6"
     d="m 143.3953,116.86624 a 9.0000002,9 0 1 1 -8.77997,-15.71342 9.0000002,9 0 1 1 8.77997,15.71342 z" />
  <path
     inkscape:connector-curvature="0"
     style="fill:#000000;fill-opacity:1;stroke:none"
     id="path3967-1-2-1"
     d="m 113.39532,116.86624 a 9.0000023,9.0000024 0 1 1 -8.77999,-15.71343 9.0000023,9.0000024 0 0 1 8.77999,15.71343 z" />
  <path
     inkscape:connector-curvature="0"
     style="fill:#000000;fill-opacity:1;stroke:none"
     id="path3973-0-2-4"
     d="m 83.395314,116.86625 a 9.000004,9.0000038 0 0 1 -8.77998,-15.71344 9.000004,9.0000038 0 0 1 8.77998,15.71344 z" />
  <path
     inkscape:connector-curvature="0"
     style="fill:#ff0000;fill-opacity:1;stroke:none"
     id="path3977-2-1-5"
     d="m 53.395314,116.86625 a 9,9.0000001 0 1 1 -8.77998,-15.71342 9,9.0000001 0 1 1 8.77998,15.71342 z" />
  <path
     inkscape:connector-curvature="0"
     style="fill:#000000;fill-opacity:1;stroke:none"
     id="path3959-9-6-8"
     d="m 143.3953,146.86625 a 9.0000002,9 0 1 1 -8.77997,-15.71342 9.0000002,9 0 1 1 8.77997,15.71342 z" />
  <path
     inkscape:connector-curvature="0"
     style="fill:#000000;fill-opacity:1;stroke:none"
     id="path3967-1-3-6"
     d="m 113.39532,146.86625 a 9.0000014,9.0000015 0 1 1 -8.77999,-15.71343 9.0000014,9.0000015 0 0 1 8.77999,15.71343 z" />
  <path
     inkscape:connector-curvature="0"
     style="fill:#000000;fill-opacity:1;stroke:none"
     id="path3973-0-22-5"
     d="m 83.395314,146.86626 a 9.0000006,9.0000004 0 0 1 -8.77998,-15.71343 9.0000006,9.0000004 0 0 1 8.77998,15.71343 z" />
  <path
     inkscape:connector-curvature="0"
     style="fill:#000000;fill-opacity:1;stroke:none"
     id="path3977-2-4-4"
     d="m 53.395314,146.86626 a 9,9.0000001 0 1 1 -8.77998,-15.71342 9,9.0000001 0 1 1 8.77998,15.71342 z" />
</svg>
